# xmcd
#
# Track frame offsets:
#	150
#	8426
#	24447
#	38221
#	56323
#	65571
#	80360
#	96967
#	106773
#	125666
#	131166
#	147667
#	166002
#	177895
#	193965
#	203846
#	218333
#	236501
#	248084
#	259558
#	272566
#	279931
#	288003
#	304657
#	320165
#	339407
#
# Disc length: 4726 seconds
#
# Revision: 0
# Processed by: cddbd v1.5.1PL2 Copyright (c) Steve Scherf et al.
# Submitted via: EasyCDDAExtractor 8.1.2.3
#
DISCID=6a12741a
DTITLE=Various Artist - 93 Paranoiak
DYEAR=2006
DGENRE=Rap
TTITLE0=Sefyu - Sef Yu
TTITLE1=Offensif Killah - Reste En Garde
TTITLE2=Sofiane and Asso - Boycott
TTITLE3=Alibi Montana - Ma Rime
TTITLE4=Abdel - Aulnay Sous Sol
TTITLE5=Escobar Macson - L'evasion Du Fauve
TTITLE6=Larsen and Samat - 93 Paranoia
TTITLE7=Tandem - Patrimoine
TTITLE8=Diakso, Noss, B.T and Asso - Karismatik Parano
TTITLE9=Nadir - Perplexe
TTITLE10=Le Block, Le Vrai and Asso - D'la Courneuve A Aulnay
TTITLE11=Sofiane and Fiston - Blankok Show Alnay Zoo
TTITLE12=Asso - Flow TNT
TTITLE13=Sofiane - Flow Compressor
TTITLE14=RR (G8) - Rabzouz Renoi
TTITLE15=Kriblage - 93 Paranoiak
TTITLE16=Ghetto Fabulous Gang - Featuring Force
TTITLE17=Suzax and A.J-Mal - Barbankour
TTITLE18=Boss Raw - J'suis Parano
TTITLE19=Voltos and Brookbaker - Ghettotrip
TTITLE20=Kokaine - 1ere Avertissement
TTITLE21=Lossa - Ma Vie
TTITLE22=Psykopat and Insomniak - 93
TTITLE23=AL4 As - Aulnay Sous A Wall Street
TTITLE24=BDR - Cache Toi
TTITLE25=Ghetto Carnage - Le Carnage
EXTD=
EXTT0=
EXTT1=
EXTT2=
EXTT3=
EXTT4=
EXTT5=
EXTT6=
EXTT7=
EXTT8=
EXTT9=
EXTT10=
EXTT11=
EXTT12=
EXTT13=
EXTT14=
EXTT15=
EXTT16=
EXTT17=
EXTT18=
EXTT19=
EXTT20=
EXTT21=
EXTT22=
EXTT23=
EXTT24=
EXTT25=
PLAYORDER=
